<svg xmlns="http://www.w3.org/2000/svg" viewBox="0 0 186.04 93.03" role="img" aria-hidden="true"><defs><style>.cls-1{fill:#1789fc;}</style></defs><title>logo-blue</title><g id="Layer_2" data-name="Layer 2"><g id="Layer_1-2" data-name="Layer 1"><g id="logo-blue"><path id="Path_121" data-name="Path 121" class="cls-1" d="M179.37,67.11a.51.51,0,0,0,.1-.21l0-.1,0-.09a2,2,0,0,1,.12-.31h.06a1.55,1.55,0,0,1,.31.06c.07,0,.1,0,.13.07a1,1,0,0,0,.25,0,1.61,1.61,0,0,0,.37-.07.51.51,0,0,0,.09-.18.78.78,0,0,0,0-.22.43.43,0,0,0-.18-.22.74.74,0,0,0-.31-.12h0l-.31-.06-.31,0-.44,0c-.25,0-.43,0-.62.06l-.43,0-.56.09a.33.33,0,0,0-.25.16.54.54,0,0,0-.09.25.2.2,0,0,0,.12.18.35.35,0,0,0,.31.07,3.48,3.48,0,0,1,.72,0s0,0,0,0h0s0,0,0,0h.09v0l0,0c0,.07,0,.13-.06.13a1,1,0,0,1-.13.28c-.06.18-.12.43-.24.8a3.19,3.19,0,0,0-.19.65,2.4,2.4,0,0,1-.12.38.19.19,0,0,1,0,.12l0,.19a5,5,0,0,0-.28,1.21.29.29,0,0,0,.13.18.6.6,0,0,0,.22.16,1,1,0,0,0,.24,0,.3.3,0,0,0,.19-.19l.09-.31c0-.12.06-.28.13-.5a1.93,1.93,0,0,1,.15-.4l.19-.5.09-.31h0c0-.06.06-.16.12-.31l0-.16.06-.18c0-.06.06-.16.12-.31s.06-.28,0-.28m5.46-.93a.62.62,0,0,0-.25-.47.64.64,0,0,0-.47-.21.39.39,0,0,0-.18.06l0,0c-.06.06-.19.15-.28.25s-.19.21-.25.28l-.21.34a15.89,15.89,0,0,1-.84,1.45l-.06.1-.1.18,0,.07h0a2.13,2.13,0,0,1-.16.25.85.85,0,0,0-.09.22s0,0,0,.06A5.18,5.18,0,0,1,182,68a9.67,9.67,0,0,1,.28-1v-.15c0-.07,0-.22.06-.44a.85.85,0,0,0-.18-.59c0-.06-.1-.12-.13-.12s-.12,0-.18,0a.39.39,0,0,0-.25.18.77.77,0,0,0-.16.31.1.1,0,0,1,0,.1.09.09,0,0,1,0,.06,2.13,2.13,0,0,0-.25.34l-.31.56-.09.15h0l-.09.13-.1.18c-.21.4-.34.69-.43.84a1.14,1.14,0,0,1-.28.47.76.76,0,0,0,0,.21,1.07,1.07,0,0,0-.15.22,1.12,1.12,0,0,0-.16.28,2.29,2.29,0,0,0-.12.37c0,.06,0,.09,0,.16a1.61,1.61,0,0,0,.28.24.54.54,0,0,0,.31.13,2.38,2.38,0,0,0,.31-.4l.21-.47.53-1.14a1.42,1.42,0,0,0,.12-.25l.13-.25s0-.06.06-.12a.25.25,0,0,0,.06-.16l0,.4v.09c0,.07,0,.16,0,.25a1.55,1.55,0,0,1-.06.31,2.63,2.63,0,0,0,0,.56.82.82,0,0,0,0,.31.58.58,0,0,0,.15.25.46.46,0,0,0,.31.15c.13,0,.28-.12.47-.34s.19-.22.28-.34a1.28,1.28,0,0,0,.15-.25l.16-.21a4.23,4.23,0,0,0,.24-.4l.07-.13s0-.06,0-.09,0-.06.06-.13l.09-.15.22-.43.22-.38h0l0-.09.09-.19c0-.06.06-.12.09-.12,0,.16-.09.37-.18.71a3.75,3.75,0,0,1-.19.75c-.18.87-.28,1.33-.31,1.45v.38c0,.12,0,.18,0,.24a.29.29,0,0,0,.16.13.57.57,0,0,0,.18,0,.19.19,0,0,0,.16-.06.6.6,0,0,0,.25-.13c.09-.06.15-.12.15-.18V70a.57.57,0,0,1,0-.18,1.62,1.62,0,0,1,.1-.72c0-.06,0-.18.06-.37v-.06c0-.06,0-.15,0-.28s.15-.53.25-1l.18-.74v-.5"></path><path id="Path_122" data-name="Path 122" class="cls-1" d="M163.41,61.69c-.19-.12-.74-.43-1.64-.9a3.69,3.69,0,0,1-1.83-2.39,17.71,17.71,0,0,1-.47-4.65c0-1,0-1.79-.09-2.41s-.09-1.06-.09-1.24c-.13.12-.47.46-1,1.08a27.73,27.73,0,0,0-1.92,2.54,19.45,19.45,0,0,1-3.28,4.65,8.09,8.09,0,0,1-2.95,1.83,6.07,6.07,0,0,1-2.6-.4,20.71,20.71,0,0,1-3.78-1.55c-1.21-.62-1.89-1.18-2-1.58a10,10,0,0,1-.18-2.26,44.7,44.7,0,0,1,.34-5.55,11.22,11.22,0,0,1,.87-3.91,3.39,3.39,0,0,1,.12-.62.68.68,0,0,0-.12-.68c.43-1.39,1.24-4,2.48-8s2-6.33,2.38-7.23a6.44,6.44,0,0,1,.22-1.45,5.8,5.8,0,0,0,.22-1.3,1.79,1.79,0,0,1,.28-.87,4.76,4.76,0,0,1,.62-.87,3.78,3.78,0,0,1,2.76-1.36,3.36,3.36,0,0,1,2.26.83,9.46,9.46,0,0,1,1.58,1.93,3.74,3.74,0,0,1,.5,2,10.52,10.52,0,0,1-.9,3.75c-.9,2.08-1.83,4.25-2.7,6.51s-1.43,3.84-1.7,4.74a3.5,3.5,0,0,1-.22,1.15,3.44,3.44,0,0,0-.21,1A2,2,0,0,0,150,46a5.28,5.28,0,0,1-.27,1.3,6,6,0,0,0-.28,1.83,5.57,5.57,0,0,0-.1,1.08c0,.68.22,1,.62,1a2.09,2.09,0,0,0,.84-.28,11.32,11.32,0,0,0,.87-1.3c.34-.55.71-1.2,1.15-1.86a4,4,0,0,1,1.05-1.7,1.76,1.76,0,0,0,.68-1.42,5.53,5.53,0,0,1,1.15-1.92c.74-1,1.3-1.77,1.58-2.2l2.39-4.19a10.29,10.29,0,0,1,1.3-1.92c.12-.19.34-.53.74-1a7.49,7.49,0,0,0,.9-1.7c.43-.78.84-1.43,1.18-2a1.67,1.67,0,0,1,1.46-.77,3,3,0,0,1,1.36.18c.19.13.34.5.56,1.18a11.35,11.35,0,0,1,1.52,2.05,4.91,4.91,0,0,1,.77,2,1.18,1.18,0,0,0-.34.75,3.2,3.2,0,0,0-.09.62c-.06.34-.22,1-.4,1.82a12,12,0,0,1-.87,2.48,51.24,51.24,0,0,0-1.83,11.53c0,1.18.16,1.83.47,2s.4,0,.68-.28a10.8,10.8,0,0,0,1-1.46,12.13,12.13,0,0,1,.75-1.3q.54-.95,1.17-1.83l1.65-2.13a15.05,15.05,0,0,0,1.92-3.17,6.7,6.7,0,0,1,.84-2.1,11,11,0,0,0,1.36-3.75,6.88,6.88,0,0,1,1-1.86,25.88,25.88,0,0,0,1.83-3.5,5.71,5.71,0,0,1,2.05-2.89,4.92,4.92,0,0,1,2.79-1,3,3,0,0,1,1.92.62,1.93,1.93,0,0,1,.62,1.74,45.94,45.94,0,0,1-3.63,10.88,86.29,86.29,0,0,1-6.16,11.59,5.85,5.85,0,0,0-1.3,1.46,3,3,0,0,0-.56,1.3c0,.27-.56,1-1.7,2.38a15.39,15.39,0,0,1-3.23,3,4.94,4.94,0,0,1-3.28,1.08,5.73,5.73,0,0,1-2.73-.62m-43.27-9.17a9.25,9.25,0,0,0,2.76-1.09A5.81,5.81,0,0,1,124.84,50c.19,0,.34-.19.5-.5a17.37,17.37,0,0,1,.84-1.55,22.71,22.71,0,0,1,2-2.79,15.16,15.16,0,0,0,2.05-2.67,3.89,3.89,0,0,0,.62-2,8,8,0,0,0-.19-1.3c-.06-.19-.25-.34-.62-.5s-.65-.28-1-.4a1.89,1.89,0,0,0-.9.21,1.54,1.54,0,0,1-.62.22,1.77,1.77,0,0,1-1-.46l-1.46-1.83L123.51,38a16.33,16.33,0,0,0-3.5,5.67,24.8,24.8,0,0,0-1.7,6.51,2.31,2.31,0,0,0,.4,1.8,2.8,2.8,0,0,0,1.46.59m-.28,7.68a6.64,6.64,0,0,1-1.18.1,4,4,0,0,1-1.92-.4,10,10,0,0,1-1.74-1.43,9.21,9.21,0,0,1-3.65-3.38c-1-1.58-1.49-2.82-1.37-3.75a37.53,37.53,0,0,1,2.48-9.55,37,37,0,0,1,5.24-9.33,19,19,0,0,1,6.88-5.82,8,8,0,0,1,3-.62c1.89,0,3.13.62,3.75,1.83a4.82,4.82,0,0,1,.62,1.92c0,.74-.44,1.21-1.3,1.46a1,1,0,0,0-.62.27.65.65,0,0,0-.34.56,1.81,1.81,0,0,0,.83.1,20,20,0,0,0,3.85-.47,6.89,6.89,0,0,0,2.94-1,2.06,2.06,0,0,1,.9-.28l1.3.18c1,.31,1.55.69,1.55,1.09a2.73,2.73,0,0,0,.34,1.18c.22.46.4.74.62.74s.47.22.47.62a2.68,2.68,0,0,1-.62,1.43,7.62,7.62,0,0,1-1.7,1.7c-.31.18-.75.46-1.3.83a3,3,0,0,0-1,.9,1.73,1.73,0,0,0,.07,1,4,4,0,0,1,.34,1.83c0,2.07-1,4.49-3,7.28A32.86,32.86,0,0,1,128,56.56a18.23,18.23,0,0,1-8,3.65m-32.12-10a15.75,15.75,0,0,0,4.8-1.43A18.51,18.51,0,0,0,97.73,46a19.44,19.44,0,0,0,3.19-3.22A4.79,4.79,0,0,0,102,39.81a4.22,4.22,0,0,0-.83-2.48,2.12,2.12,0,0,0-1.92-1c-2,0-4.62,1.55-7.84,4.65a18.28,18.28,0,0,0-3,4.34,10,10,0,0,0-1.3,4c.06.65.28.93.62.93M49.1,51.37c1,.12,2.85-1,5.64-3.29.31-.25.62-.52,1-.87s.75-.68,1.18-1.05c1.7-1.39,3-2.57,4-3.5a32.59,32.59,0,0,0,2.88-3.44l2-3.29a9,9,0,0,0-1.64-2.7,2.14,2.14,0,0,0-1.46-.68c-1.21,0-2.76,1.09-4.56,3.22a71,71,0,0,0-6.57,9.83A19,19,0,0,0,49.93,49c-.43,1.18-.71,2-.83,2.33m7-44.6a1.78,1.78,0,0,1-.4,1.58,10.41,10.41,0,0,1-2.6,1.8c-2.75,1.33-4.27,2.36-4.65,3-.31.24-1,.74-2,1.55s-2.39,1.76-4,2.94C40,19.23,38,20.71,36.23,22.11a21.85,21.85,0,0,0-3.44,3.22,1.41,1.41,0,0,0-.68.28.78.78,0,0,1-.68.19,7.66,7.66,0,0,0-.84.56,3.39,3.39,0,0,0-.9.83,5,5,0,0,1-.87,1.43,1.65,1.65,0,0,1-1.42.62,34.65,34.65,0,0,0-4.8,3.35,31.62,31.62,0,0,0,3.47,11.25,28.85,28.85,0,0,0,5.39,8.58,22.22,22.22,0,0,0,3.63,3.29,5.43,5.43,0,0,0,2.6,1.18A9.41,9.41,0,0,1,40,58.19c1,.68,1.49,1.21,1.55,1.64a3.27,3.27,0,0,1,.09,1.08,7.36,7.36,0,0,1-.4,2.42,3.31,3.31,0,0,1-1.42,1.86,2.36,2.36,0,0,1-1.65.75,9.29,9.29,0,0,1-3-.9c-1,.06-2.67-.87-5-2.76a37.17,37.17,0,0,1-5.46-5.18c-1.64-2.39-3.07-4.55-4.25-6.51a23.76,23.76,0,0,1-2.69-6.38,34,34,0,0,0-1.46-4.93c-.34-1.18-.59-1.89-.62-2.2l-.28.74c-.06.19-.43,1.18-1.14,3s-1.7,5.05-3,9.67c-1.08,3.6-2.08,6.64-2.94,9.21a38,38,0,0,1-2,5.14c-.5.9-1,1.3-1.52,1.3a3.26,3.26,0,0,1-1.83-.84C1,64.17,0,62.93,0,61.6a4.45,4.45,0,0,1,.19-1.09,6.6,6.6,0,0,1,.18-2.26A9.71,9.71,0,0,0,.65,57c.44,0,.62-.47.62-1.46a14,14,0,0,1,.84-3.23l.83-2.82L4,46.78a26.83,26.83,0,0,0,1-2.76,6.15,6.15,0,0,1,1.18-3,16.45,16.45,0,0,0,.62-2.39,10.71,10.71,0,0,0,.28-2.11c.12-.31.46-1,1-2.11a13.68,13.68,0,0,0,1.18-3.28,7.18,7.18,0,0,1,.34-1,10.65,10.65,0,0,0,.5-1.37l3-8.24,1.36-3.1c.13-.31.53-1.24,1.24-2.82s1.15-2.39,1.43-2.39v-1a10.31,10.31,0,0,1,1-2.39l1.09-2.2a12,12,0,0,0,1.14-2.26c.28-.78.44-1.3.5-1.55s.19-.34.34-.62a6.51,6.51,0,0,1,.62-.84,8.2,8.2,0,0,1,1.86-1,5.72,5.72,0,0,1,2-.34,2.14,2.14,0,0,1,2.11,1.18A8.27,8.27,0,0,1,29,4.84a3,3,0,0,1-.56,1.83c-1.3,2.64-2.79,5.86-4.55,9.74s-3.07,6.91-3.94,9.2l.62-.46a83.06,83.06,0,0,1,7.56-6.33L39.36,9.68a38.35,38.35,0,0,0,6-4,8.68,8.68,0,0,0,1.46-1,4.36,4.36,0,0,1,.9-.62A21.49,21.49,0,0,1,50,2.43c1.11-.75,1.8-1.12,2.1-1.06.44-.18,1,.06,1.65.75a9.19,9.19,0,0,1,1.7,2.48,3.63,3.63,0,0,1,.65,2.17M78.51,51.83c.5-1.55,1.09-3.34,1.77-5.39q3.12-9.25,5.3-14.91c.74-1.7,1.33-3.28,1.83-4.74a13.22,13.22,0,0,0,.74-3.1,1.11,1.11,0,0,1,.22-.68,7,7,0,0,1,.77-.87,2.7,2.7,0,0,1,1.93-.74,5.1,5.1,0,0,1,3,1,7.7,7.7,0,0,1,.9,1.73,4.44,4.44,0,0,1,.28,1.65c0,.18-.06.74-.18,1.73A5.78,5.78,0,0,1,94,31c-.75,1-1.06,1.52-1,1.46a16.12,16.12,0,0,1,8.3-2.76,8.15,8.15,0,0,1,6.57,2.88,10.08,10.08,0,0,1,2.48,6.79A12,12,0,0,1,108.86,44a14.61,14.61,0,0,1-2.39,3.9c-.34,0-.87.62-1.46,1.92a12.44,12.44,0,0,1-4.15,3.07c-2,1.06-3.44,1.46-4.15,1.24-.07,0-.16.06-.28.22a.93.93,0,0,0-.19.62c0,.25-.9.68-2.76,1.3a15,15,0,0,1-4.74.9A10,10,0,0,1,87.1,57,2.18,2.18,0,0,1,86,56.42a1.78,1.78,0,0,0-.63,1.18,7.88,7.88,0,0,1-.9,2.88c-.62,1.3-1.08,2-1.45,2a2,2,0,0,0-.22.34c-.09.18,0,.4.22.62,0,.18,0,.62-.1,1.3a3.29,3.29,0,0,1-.46,1.55,12.25,12.25,0,0,1-.28,2.26,10.07,10.07,0,0,1-.62,2.14,6.23,6.23,0,0,1-.34,2.14c-.19.71-.43,1.05-.68,1.05s-.56,1-.56,2.67a6.61,6.61,0,0,1-1.43,3.93c-.9,1.15-1.7,1.74-2.51,1.74l-.83.09a1.47,1.47,0,0,1-1.37-.83L73,80.38a5.23,5.23,0,0,1-.74-2.94A10.23,10.23,0,0,1,72.47,76a25.08,25.08,0,0,0,1-5.3,6.27,6.27,0,0,1,.19-1.3c.12-.59.21-1.12.27-1.58a7.83,7.83,0,0,0,.69-2A13,13,0,0,0,75,63.49a2,2,0,0,1,.34-1.06,3.11,3.11,0,0,1,.77-1,9,9,0,0,1,.28-1.7,13.86,13.86,0,0,0,.34-1.58s0-.06,0-.12c-.65.06-1.14.12-1.42.12a9.08,9.08,0,0,1-4.84-1.36,11.22,11.22,0,0,1-3.84-4.65,10.68,10.68,0,0,1-1-2,10.81,10.81,0,0,1-.68-2,23.88,23.88,0,0,1-2.11,2.39c-6.26,6.35-11.38,9.51-15.25,9.51a6.39,6.39,0,0,1-3.57-1,5.4,5.4,0,0,0-1.55-1.46,6.12,6.12,0,0,1-1.3-1.08,2.06,2.06,0,0,0-.4-1.06c-.27-.46-.52-.86-.77-1.24-.47-.46-.16-2.07,1-4.74s2.7-5.83,4.65-9.51A13.31,13.31,0,0,0,47.14,38a8.31,8.31,0,0,1,1.15-1.55,1,1,0,0,1,.28-.68.82.82,0,0,1,.62-.34L49.93,34A22.64,22.64,0,0,1,53.5,30a30.44,30.44,0,0,1,5-4.18,6.54,6.54,0,0,1,3.75-1.18A5.68,5.68,0,0,1,66,26l2.48,2.11c1.83,1.52,2.85,2.39,3.1,2.66l3.38,3-1.55,4.59A14.69,14.69,0,0,0,72.59,43a11.86,11.86,0,0,0,1.92,6.51,3.77,3.77,0,0,0,1.24,1.55,4.88,4.88,0,0,0,2,.74,1.42,1.42,0,0,1,.71,0"></path><path id="Path_123" data-name="Path 123" class="cls-1" d="M91.38,75.17a6.93,6.93,0,0,0,2.48-.59,16.25,16.25,0,0,0,2.94-1.42,10.27,10.27,0,0,0,1.92-1.92c.16-.25.44-.84.87-1.7a13.69,13.69,0,0,0,.59-1.3,4.38,4.38,0,0,0,.28-1.43c0-.19,0-.34,0-.43a3.19,3.19,0,0,0-2.14-2.55,13,13,0,0,0-1.65-.19c-.18,0-.46,0-.86.06a1.68,1.68,0,0,0-.84.5,8.22,8.22,0,0,0-.68,1.4,26.24,26.24,0,0,0-1.52,3.22c-.47,1.64-.87,3-1.21,3.81S91,74,90.94,74.18v.16c0,.15,0,.31,0,.43a.4.4,0,0,0,.06.34,1.09,1.09,0,0,0,.4.07m-6,12a.92.92,0,0,1-.34-.34,2.33,2.33,0,0,1-.46-.62,2.55,2.55,0,0,1-.19-1.12,13,13,0,0,1,.81-3.69c.18-.68.34-1.33.56-2a2.62,2.62,0,0,0,.24-1,3.28,3.28,0,0,1,.1-.69,2.27,2.27,0,0,0,.09-.52c.31,0,.56-.5.81-1.52.09-.37.18-.68.24-.93l.16-.59a2.21,2.21,0,0,0,.18-.34c.07-.16.13-.28.19-.4a11.28,11.28,0,0,1,.71-1.68c.31-1.11.65-2.26,1.06-3.47a26.47,26.47,0,0,1,1-2.7L91,64.54c0-.07.07-.19.19-.44a1.83,1.83,0,0,0,.12-.46c0-.13,0-.19-.09-.22s-.25-.37-.25-.71a1.87,1.87,0,0,1,.72-1.52,1.94,1.94,0,0,1,1.08-.68,6.08,6.08,0,0,1,1.64-.19c.28,0,.75,0,1.43.06.31,0,1.08,0,2.32,0l.81.34a4.24,4.24,0,0,1,1.24.62.33.33,0,0,0,.12.25c.07.06.19.06.38.09s.74.35,1.45,1a6.18,6.18,0,0,1,1.46,1.83c.22.43.37.77.47,1a3.83,3.83,0,0,1,.12.9c0,.15,0,.43-.06.8a10.47,10.47,0,0,1-.19,1.12,1.52,1.52,0,0,1-.25.71c-.4.31-.59.56-.59.78a6.28,6.28,0,0,1-1.05,2,14.78,14.78,0,0,1-1.86,2.45A9.29,9.29,0,0,1,98,76.29a21.25,21.25,0,0,1-3.47,1.2,10.36,10.36,0,0,1-2.92.47,8,8,0,0,0-1.45.31.85.85,0,0,0-.44.59c-.12.34-.22.68-.34,1a5.71,5.71,0,0,0-.19.71,21.81,21.81,0,0,0-.9,2.45c-.46,1.37-.74,2.42-.93,3.13a1.18,1.18,0,0,1-.58.75,1.67,1.67,0,0,1-.81.28.42.42,0,0,1-.5,0"></path><path id="Path_124" data-name="Path 124" class="cls-1" d="M100.77,83.51a1.31,1.31,0,0,1-.19-1,15.06,15.06,0,0,1,.56-2.89l.19-.71a31.82,31.82,0,0,1,2.88-7.84,1.68,1.68,0,0,1,1.24-.37,1.34,1.34,0,0,1,1,.31.89.89,0,0,1,.31.71,8.17,8.17,0,0,1-1,3l-.37.77c-.19.34-.31.59-.44.87s-.09.4,0,.37a8.71,8.71,0,0,1,2-1.92A21.13,21.13,0,0,1,109,73.25l.66-.31c.27-.09.46-.19.55-.22a3.37,3.37,0,0,1,1.52-.34,2.39,2.39,0,0,1,1,.19,1,1,0,0,1,.59.5.75.75,0,0,0,.19.4c.09.09.19.15.22.18a.18.18,0,0,1,.15.1.27.27,0,0,1,0,.12,1.29,1.29,0,0,1-.5.75,1.91,1.91,0,0,1-1,.5,2.69,2.69,0,0,0-.84.18,4.74,4.74,0,0,0-.87.37l-1,.56a21.19,21.19,0,0,0-2.11,1.24A11.61,11.61,0,0,0,105.88,79c-.13.13-.31.31-.53.5a4.39,4.39,0,0,0-1.11,2.11A6.7,6.7,0,0,0,104,83c0,.06-.07.22-.16.44a1.41,1.41,0,0,1-.34.59,3.41,3.41,0,0,1-.56.58.73.73,0,0,1-.46.19,1.38,1.38,0,0,1-.87-.46,7.46,7.46,0,0,1-.81-.78"></path><path id="Path_125" data-name="Path 125" class="cls-1" d="M115.77,69.35a2,2,0,0,1-.25-.78c0-.25,0-.4.06-.43a3,3,0,0,0,.44-.72,4.19,4.19,0,0,1,.34-.62,9.36,9.36,0,0,1,.46-1c.19-.34.34-.52.47-.56a1.25,1.25,0,0,1,.46-.15,2,2,0,0,1,1.06.34,2.57,2.57,0,0,1,.86.78,2.23,2.23,0,0,1,.25,1,3.07,3.07,0,0,1-.84,1.92,2,2,0,0,1-.86.71,2.44,2.44,0,0,1-1,.25,1.37,1.37,0,0,1-.83-.22,1.72,1.72,0,0,1-.59-.58M111.89,82.8a2.43,2.43,0,0,1,.19-1.06,3.18,3.18,0,0,1,.06-.43,1,1,0,0,0,.06-.34,3.38,3.38,0,0,1,.31-1.21,31.45,31.45,0,0,0,1.12-3c.47-1.36.74-2.32.93-2.94a.41.41,0,0,1,.16-.31.77.77,0,0,1,.43-.19c.28-.09.59,0,1,.34a5.22,5.22,0,0,1,1,1.12.76.76,0,0,1,.21.59,3.89,3.89,0,0,1-.46,1.52,6.8,6.8,0,0,0-.34,1c-.1.4-.19.74-.28,1.11a15.78,15.78,0,0,0-.72,1.83c-.06.34-.12.56-.15.72a10.62,10.62,0,0,1-.47,1.76,3.4,3.4,0,0,1-.62,1.4,1.16,1.16,0,0,1-.9.46,1.36,1.36,0,0,1-1-.5,2.61,2.61,0,0,1-.53-1.83"></path><path id="Path_126" data-name="Path 126" class="cls-1" d="M134.93,84.29a2.37,2.37,0,0,1-.75-.53,3.28,3.28,0,0,1-.8-1.21,4.88,4.88,0,0,1-.35-1.89,7.32,7.32,0,0,1,.1-1.24c0-.23.07-.45.09-.68s0-.19-.09-.19c-.62,0-2,1.15-4.16,3.47a1.07,1.07,0,0,0-.18.19,6.06,6.06,0,0,0-.81.71,8.13,8.13,0,0,1-.9.75,1.51,1.51,0,0,1-.74.27.88.88,0,0,1-.56-.21l-.4-.34A.94.94,0,0,1,125,83a1,1,0,0,1-.16-.56v-.16l.87-2.45a11,11,0,0,0,.9-2.38c0-.06,0-.06,0-.06-.22,0-.56.18-1,.58s-1,1-1.8,1.9l-1.64,1.7c-.19.18-.72.77-1.58,1.76-.53.65-.84,1-.84,1a2.17,2.17,0,0,1-2.11-2.13,6.7,6.7,0,0,1,.16-1.18,14.64,14.64,0,0,1,.34-1.52,6.43,6.43,0,0,1,.18-.65c.06-.25.13-.53.19-.87s.09-.5.18-.81a6.63,6.63,0,0,1,.38-1.14c.18-.47.46-1.12.86-2a3.66,3.66,0,0,0,.16-1,2.1,2.1,0,0,0,0-.5,1.55,1.55,0,0,1,0-.31,1.12,1.12,0,0,1,.52-.93,2,2,0,0,1,1.18-.37,1.61,1.61,0,0,1,1.43.68,2.26,2.26,0,0,1,.46,1.4,2.29,2.29,0,0,1-.31,1.2l-.4,1c-.09.21-.28.62-.52,1.17a5,5,0,0,0-.38,1.06.08.08,0,0,0,.07.09h0a1,1,0,0,0,.59-.4,28.19,28.19,0,0,1,2.82-2.29,9.67,9.67,0,0,1,2.38-1.4,1.53,1.53,0,0,1,.78.31,3.58,3.58,0,0,1,.87.78,1.76,1.76,0,0,1,.37,1.08l0,.31c0,.1-.13.5-.31,1.24a5.39,5.39,0,0,1-.44,1.28,13.22,13.22,0,0,1,2.42-2,5.87,5.87,0,0,1,2.54-1.24,1.52,1.52,0,0,1,1.58,1,9.86,9.86,0,0,1,.5,2.89,8.69,8.69,0,0,0,.4,2.42.76.76,0,0,0,.5.37,2.33,2.33,0,0,1,.71.34.87.87,0,0,1,.28.77,1.1,1.1,0,0,1-.71,1.12,4.17,4.17,0,0,1-1.7.34,2,2,0,0,1-.74-.15"></path><path id="Path_127" data-name="Path 127" class="cls-1" d="M143.5,80.16a2.18,2.18,0,0,0,.4-.34,4.79,4.79,0,0,0,.47-.43A20.65,20.65,0,0,0,146,78a11.79,11.79,0,0,0,1.15-1.39l.8-1.3a4.31,4.31,0,0,0-.65-1.09.91.91,0,0,0-.59-.28c-.46,0-1.11.44-1.83,1.3a31.41,31.41,0,0,0-2.63,3.94,7.13,7.13,0,0,0-.65,1.4c-.19.46-.28.77-.34.93a4.73,4.73,0,0,0,2.29-1.34m-4.9,3.72a1.87,1.87,0,0,1-.5-.43,1.14,1.14,0,0,0-.18-.44c-.1-.18-.22-.34-.31-.5s-.07-.83.4-1.92,1.08-2.32,1.86-3.81a8.75,8.75,0,0,0,.58-.78,1.9,1.9,0,0,1,.47-.62.38.38,0,0,1,.34-.4l.31-.59A10.69,10.69,0,0,1,143,72.81a10.38,10.38,0,0,1,2-1.67,2.45,2.45,0,0,1,1.52-.47,2.59,2.59,0,0,1,1.52.5l1,.87c.71.59,1.15,1,1.24,1l1.37,1.21L151,76.13a6,6,0,0,0-.35,1.86,4.63,4.63,0,0,0,.78,2.58,1.44,1.44,0,0,0,.5.62,1.83,1.83,0,0,0,.84.31c.52.09.8.37.8.8a1.86,1.86,0,0,1-.31,1.21,1.17,1.17,0,0,1-.71.5,5.52,5.52,0,0,1-.81.06,3.37,3.37,0,0,1-1.92-.56,4.53,4.53,0,0,1-1.52-1.86,8.25,8.25,0,0,1-.37-.8,7,7,0,0,1-.28-.81,10.28,10.28,0,0,1-.84,1c-2.51,2.55-4.52,3.82-6.1,3.82a2.58,2.58,0,0,1-1.43-.4,7.27,7.27,0,0,1-.71-.53"></path><path id="Path_128" data-name="Path 128" class="cls-1" d="M153.58,83.51a1.35,1.35,0,0,1-.18-1A15.06,15.06,0,0,1,154,79.6l.18-.71A32.65,32.65,0,0,1,157,71.05a1.7,1.7,0,0,1,1.24-.37,1.38,1.38,0,0,1,1,.31.92.92,0,0,1,.31.71,8.38,8.38,0,0,1-1.06,3l-.37.77c-.18.34-.31.59-.43.87s-.1.4,0,.37a8.46,8.46,0,0,1,1.95-1.92,21.26,21.26,0,0,1,2.14-1.52l.65-.31c.28-.09.47-.19.56-.22a3.32,3.32,0,0,1,1.52-.34,2.39,2.39,0,0,1,1,.19,1,1,0,0,1,.59.5.68.68,0,0,0,.19.4c.09.09.18.15.21.18a.18.18,0,0,1,.16.1.27.27,0,0,1,0,.12,1.29,1.29,0,0,1-.5.75,1.91,1.91,0,0,1-1.06.5,2.63,2.63,0,0,0-.83.18,4.22,4.22,0,0,0-.87.37l-1,.56a21.19,21.19,0,0,0-2.11,1.24A12.2,12.2,0,0,0,158.69,79c-.12.13-.31.31-.52.5a3,3,0,0,0-.59.78,3.35,3.35,0,0,0-.53,1.33,7.49,7.49,0,0,0-.28,1.33c0,.06-.06.22-.15.44a1.52,1.52,0,0,1-.34.59,3.84,3.84,0,0,1-.56.58.75.75,0,0,1-.47.19,1.38,1.38,0,0,1-.86-.46,7.46,7.46,0,0,1-.81-.78"></path><path id="Path_129" data-name="Path 129" class="cls-1" d="M177.2,72.6a1.38,1.38,0,0,1,.22.84,3.84,3.84,0,0,1-.59,1.83,12.79,12.79,0,0,1-.65,1.58,5.3,5.3,0,0,1-.53,1l-.83,1.92c-.38.81-.84,1.74-1.37,2.82-.65,1.37-1.11,2.39-1.36,3l-.47.77a42.55,42.55,0,0,1-2.82,4.1c-.52.46-1.18,1-1.89,1.51a4.09,4.09,0,0,1-1.77.9,7,7,0,0,1-1.52.16,7.34,7.34,0,0,1-2.66-.5c-.78-.34-1.24-.74-1.37-1.24l-.06-.43a1.31,1.31,0,0,1,.5-1,2.09,2.09,0,0,1,1.09-.34.78.78,0,0,1,.56.19,6,6,0,0,1,.58.4,2.33,2.33,0,0,0,1.4.37c1.12,0,2.17-.71,3.22-2.17,1-1.64,1.8-2.94,2.33-3.9a5.21,5.21,0,0,1-1.43-1.49c-.46-.72-.68-1.18-.62-1.46v-.4c-.18,0-.34-.37-.43-1.12s-.13-1.64-.13-2.7,0-2,.07-2.44a9,9,0,0,0,.18-1.46c0-.59,0-1,0-1.12a1.76,1.76,0,0,1,.19-.9,1.44,1.44,0,0,1,.46-.52,2.35,2.35,0,0,1,.78-.19c1.12,0,1.67,1.21,1.67,3.6a9.21,9.21,0,0,1,0,1.05c-.06,1.18-.06,2-.06,2.48,0,1.89.25,3.1.78,3.66a8.81,8.81,0,0,1,.55-1.11,10.29,10.29,0,0,0,.59-1.37,6.85,6.85,0,0,1,.4-.87l.47-1c.06-.15.18-.62.46-1.39a12.11,12.11,0,0,1,.81-1.93c.09-.18.25-.46.43-.86a8.6,8.6,0,0,1,.47-.84.84.84,0,0,1,.4-.34.81.81,0,0,1,.62-.25,1.29,1.29,0,0,1,.71.22c.25.4.47.68.62.93"></path></g></g></g></svg>